<svg xmlns="http://www.w3.org/2000/svg" xmlns:xlink="http://www.w3.org/1999/xlink" width="1080" zoomAndPan="magnify" viewBox="0 0 810 809.999993" height="1080" preserveAspectRatio="xMidYMid meet" version="1.0"><defs><clipPath id="0ca6c6865d"><path d="M 114 101.398438 L 695 101.398438 L 695 708.898438 L 114 708.898438 Z M 114 101.398438 " clip-rule="nonzero"/></clipPath><clipPath id="2f0aeec208"><path d="M 23.710938 355 L 89 355 L 89 566 L 23.710938 566 Z M 23.710938 355 " clip-rule="nonzero"/></clipPath><clipPath id="798ca07317"><path d="M 720 355 L 786.460938 355 L 786.460938 566 L 720 566 Z M 720 355 " clip-rule="nonzero"/></clipPath></defs><g clip-path="url(#0ca6c6865d)"><path fill="#ffffff" d="M 566.046875 708.550781 L 243.503906 708.550781 C 172.472656 708.550781 114.84375 650.921875 114.84375 580.339844 L 114.84375 371.269531 C 114.84375 300.238281 172.472656 242.609375 243.503906 242.609375 L 390.925781 242.609375 L 391.375 193.46875 C 372.164062 187.660156 357.867188 169.792969 357.867188 148.347656 C 357.867188 122.4375 379.3125 101.441406 405.222656 101.441406 C 431.132812 101.441406 452.574219 122.4375 452.574219 148.347656 C 452.574219 169.792969 437.832031 188.109375 418.175781 193.914062 L 417.730469 242.609375 L 566.046875 242.609375 C 636.628906 242.609375 694.257812 300.238281 694.257812 371.269531 L 694.257812 580.785156 C 694.257812 651.371094 636.628906 708.550781 566.046875 708.550781 Z M 283.710938 505.734375 C 245.738281 505.734375 215.808594 475.804688 215.808594 438.277344 C 215.808594 400.304688 245.738281 370.375 283.710938 370.375 C 321.683594 370.375 351.167969 400.304688 351.167969 438.277344 C 351.167969 475.804688 321.683594 505.734375 283.710938 505.734375 Z M 283.710938 397.179688 C 260.480469 397.179688 242.609375 415.046875 242.609375 438.277344 C 242.609375 461.0625 260.480469 478.929688 283.710938 478.929688 C 306.496094 478.929688 324.808594 461.0625 324.808594 438.277344 C 324.808594 415.046875 306.496094 397.179688 283.710938 397.179688 Z M 526.285156 503.054688 C 488.316406 503.054688 457.9375 472.675781 457.9375 435.152344 C 457.9375 397.625 488.316406 367.246094 526.285156 367.246094 C 563.367188 367.246094 593.742188 397.625 593.742188 435.152344 C 593.742188 472.675781 563.367188 503.054688 526.285156 503.054688 Z M 526.285156 394.050781 C 503.058594 394.050781 484.742188 412.816406 484.742188 435.152344 C 484.742188 457.933594 503.058594 476.699219 526.285156 476.699219 C 549.070312 476.699219 566.941406 457.933594 566.941406 435.152344 C 566.941406 411.921875 548.625 394.050781 526.285156 394.050781 Z M 399.863281 584.359375 C 374.398438 584.359375 352.0625 572.296875 339.550781 561.578125 C 333.746094 556.664062 333.296875 547.726562 338.210938 542.8125 C 343.125 537.453125 351.167969 536.558594 356.976562 541.921875 C 360.996094 545.496094 399.863281 576.320312 436.941406 542.367188 C 442.300781 537.453125 450.34375 537.453125 456.148438 542.8125 C 461.0625 548.621094 461.0625 556.664062 455.703125 562.023438 C 436.941406 578.105469 417.730469 584.359375 399.863281 584.359375 Z M 399.863281 584.359375 " fill-opacity="1" fill-rule="evenodd"/></g><g clip-path="url(#2f0aeec208)"><path fill="#ffffff" d="M 88.042969 565.152344 L 82.679688 565.152344 C 50.515625 565.152344 23.710938 538.792969 23.710938 506.183594 L 23.710938 415.046875 C 23.710938 382.4375 50.515625 355.632812 82.679688 355.632812 L 88.933594 355.632812 C 88.488281 360.546875 88.042969 365.90625 88.042969 371.269531 Z M 88.042969 565.152344 " fill-opacity="1" fill-rule="evenodd"/></g><g clip-path="url(#798ca07317)"><path fill="#ffffff" d="M 726.421875 565.152344 L 721.0625 565.152344 L 721.0625 371.269531 C 721.0625 365.460938 720.617188 360.101562 720.167969 355.1875 L 726.421875 355.1875 C 759.480469 355.1875 786.285156 381.542969 786.285156 414.601562 L 786.285156 506.183594 C 786.285156 539.242188 759.480469 565.152344 726.421875 565.152344 Z M 726.421875 565.152344 " fill-opacity="1" fill-rule="evenodd"/></g></svg>